<svg width="20" height="20" viewBox="0 0 20 20" fill="none" xmlns="http://www.w3.org/2000/svg">
<path d="M10.0052 18.3327C14.6076 18.3327 18.3385 14.6017 18.3385 9.99935C18.3385 5.39698 14.6076 1.66602 10.0052 1.66602C5.40284 1.66602 1.67188 5.39698 1.67188 9.99935C1.67188 14.6017 5.40284 18.3327 10.0052 18.3327Z" stroke="#5C473B" stroke-width="1.5" stroke-linecap="round" stroke-linejoin="round"/>
<path opacity="0.4" d="M7.57812 7.50047C7.77405 6.94353 8.16075 6.4739 8.66975 6.17475C9.17876 5.87561 9.7772 5.76626 10.3591 5.86607C10.941 5.96588 11.4688 6.26841 11.849 6.72008C12.2292 7.17175 12.4373 7.74341 12.4365 8.33381C12.4365 10.0005 9.93646 10.8338 9.93646 10.8338" stroke="#5C473B" stroke-width="1.5" stroke-linecap="round" stroke-linejoin="round"/>
<path opacity="0.4" d="M10 14.167H10.0083" stroke="#5C473B" stroke-width="1.5" stroke-linecap="round" stroke-linejoin="round"/>
</svg>
