<svg width="20" height="20" viewBox="0 0 20 20" fill="none" xmlns="http://www.w3.org/2000/svg">
<path d="M3.33398 15.538V6.71172C3.33398 4.33338 3.33398 3.14421 4.06622 2.40536C4.79845 1.6665 5.97696 1.6665 8.33398 1.6665H11.6673C14.0243 1.6665 15.2028 1.6665 15.9351 2.40536C16.6673 3.14421 16.6673 4.33338 16.6673 6.71172V15.538C16.6673 16.7978 16.6673 17.4276 16.2823 17.6755C15.6532 18.0808 14.6807 17.231 14.1916 16.9226C13.7874 16.6677 13.5854 16.5403 13.3611 16.5329C13.1187 16.5249 12.9131 16.6472 12.4764 16.9226L10.884 17.9268C10.4544 18.1977 10.2397 18.3332 10.0007 18.3332C9.76165 18.3332 9.5469 18.1977 9.11732 17.9268L7.52493 16.9226C7.12078 16.6677 6.9187 16.5403 6.69443 16.5329C6.45208 16.5249 6.24643 16.6472 5.80971 16.9226C5.32061 17.231 4.34804 18.0808 3.71894 17.6755C3.33398 17.4276 3.33398 16.7978 3.33398 15.538Z" stroke="#8C7055" stroke-width="1.25" stroke-linecap="round" stroke-linejoin="round"/>
<path opacity="0.4" d="M13.3327 5H6.66602" stroke="#8C7055" stroke-width="1.25" stroke-linecap="round" stroke-linejoin="round"/>
<path d="M8.33268 8.3335H6.66602" stroke="#8C7055" stroke-width="1.25" stroke-linecap="round" stroke-linejoin="round"/>
<path opacity="0.4" d="M12.084 8.22917C11.3937 8.22917 10.834 8.71883 10.834 9.32292C10.834 9.927 11.3937 10.4167 12.084 10.4167C12.7743 10.4167 13.334 10.9063 13.334 11.5104C13.334 12.1145 12.7743 12.6042 12.084 12.6042M12.084 8.22917C12.6282 8.22917 13.0912 8.5335 13.2628 8.95833M12.084 8.22917V7.5M12.084 12.6042C11.5397 12.6042 11.0767 12.2998 10.9052 11.875M12.084 12.6042V13.3333" stroke="#8C7055" stroke-width="1.25" stroke-linecap="round"/>
</svg>
