<svg width="17" height="17" viewBox="0 0 17 17" fill="none" xmlns="http://www.w3.org/2000/svg">
<path d="M13.125 1.25H12.0833V0.625C12.0833 0.28 11.8033 0 11.4583 0C11.1133 0 10.8333 0.28 10.8333 0.625V1.25H5.41667V0.625C5.41667 0.28 5.13667 0 4.79167 0C4.44667 0 4.16667 0.28 4.16667 0.625V1.25H3.125C1.11 1.25 0 2.36 0 4.375V13.125C0 15.14 1.11 16.25 3.125 16.25H13.125C15.14 16.25 16.25 15.14 16.25 13.125V4.375C16.25 2.36 15.14 1.25 13.125 1.25ZM3.125 2.5H4.16667V3.125C4.16667 3.47 4.44667 3.75 4.79167 3.75C5.13667 3.75 5.41667 3.47 5.41667 3.125V2.5H10.8333V3.125C10.8333 3.47 11.1133 3.75 11.4583 3.75C11.8033 3.75 12.0833 3.47 12.0833 3.125V2.5H13.125C14.4392 2.5 15 3.06083 15 4.375V5H1.25V4.375C1.25 3.06083 1.81083 2.5 3.125 2.5ZM13.125 15H3.125C1.81083 15 1.25 14.4392 1.25 13.125V6.25H15V13.125C15 14.4392 14.4392 15 13.125 15ZM5.64168 8.95833C5.64168 9.41833 5.26918 9.79167 4.80835 9.79167C4.34835 9.79167 3.97074 9.41833 3.97074 8.95833C3.97074 8.49833 4.34001 8.125 4.80001 8.125H4.80835C5.26835 8.125 5.64168 8.49833 5.64168 8.95833ZM8.97502 8.95833C8.97502 9.41833 8.60252 9.79167 8.14168 9.79167C7.68168 9.79167 7.30408 9.41833 7.30408 8.95833C7.30408 8.49833 7.67334 8.125 8.13334 8.125H8.14168C8.60168 8.125 8.97502 8.49833 8.97502 8.95833ZM12.3083 8.95833C12.3083 9.41833 11.9358 9.79167 11.475 9.79167C11.015 9.79167 10.6374 9.41833 10.6374 8.95833C10.6374 8.49833 11.0067 8.125 11.4667 8.125H11.475C11.935 8.125 12.3083 8.49833 12.3083 8.95833ZM5.64168 12.2917C5.64168 12.7517 5.26918 13.125 4.80835 13.125C4.34835 13.125 3.97074 12.7517 3.97074 12.2917C3.97074 11.8317 4.34001 11.4583 4.80001 11.4583H4.80835C5.26835 11.4583 5.64168 11.8317 5.64168 12.2917ZM8.97502 12.2917C8.97502 12.7517 8.60252 13.125 8.14168 13.125C7.68168 13.125 7.30408 12.7517 7.30408 12.2917C7.30408 11.8317 7.67334 11.4583 8.13334 11.4583H8.14168C8.60168 11.4583 8.97502 11.8317 8.97502 12.2917ZM12.3083 12.2917C12.3083 12.7517 11.9358 13.125 11.475 13.125C11.015 13.125 10.6374 12.7517 10.6374 12.2917C10.6374 11.8317 11.0067 11.4583 11.4667 11.4583H11.475C11.935 11.4583 12.3083 11.8317 12.3083 12.2917Z" fill="#4A3A2F"/>
</svg>
