<svg width="9" height="17" viewBox="0 0 9 17" fill="none" xmlns="http://www.w3.org/2000/svg">
<path d="M8.335 11.3583C8.335 9.68917 7.20249 8.2367 5.57749 7.8242L3.16416 7.22585C2.73 7.11585 2.35667 6.87246 2.08 6.51662C1.81417 6.18079 1.66749 5.75166 1.66749 5.30833C1.66749 4.21916 2.55334 3.33333 3.6425 3.33333H4.6925C5.69916 3.33333 6.54333 4.09005 6.65583 5.09338C6.7075 5.55088 7.12083 5.88168 7.57666 5.82835C8.03416 5.77668 8.36333 5.3642 8.31167 4.90753C8.115 3.15336 6.69749 1.82415 4.96666 1.69332V0.833333C4.96666 0.375 4.59166 0 4.13333 0C3.67499 0 3.29999 0.375 3.29999 0.833333V1.70166C1.45416 1.87666 0 3.41748 0 5.30914C0 6.12498 0.274165 6.92163 0.766665 7.54496C1.26083 8.18246 1.96667 8.64255 2.7575 8.84338L5.17083 9.44163C6.05167 9.66496 6.66667 10.4533 6.66667 11.3592C6.66667 11.8833 6.46 12.3783 6.085 12.7533C5.71083 13.1283 5.21584 13.3341 4.69167 13.3341H3.64166C2.635 13.3341 1.79083 12.5775 1.67833 11.5742C1.62666 11.1167 1.21083 10.7875 0.757497 10.8391C0.299997 10.8908 -0.0291663 11.3034 0.0225004 11.7601C0.216667 13.4917 1.60083 14.8075 3.30083 14.9684V15.8333C3.30083 16.2917 3.67583 16.6667 4.13417 16.6667C4.5925 16.6667 4.9675 16.2917 4.9675 15.8333V14.9733C5.83333 14.9075 6.6425 14.5542 7.265 13.9317C7.955 13.2417 8.335 12.3283 8.335 11.3583Z" fill="#5C473B"/>
</svg>
