<svg width="24" height="24" viewBox="0 0 24 24" fill="none" xmlns="http://www.w3.org/2000/svg">
<path d="M4.3956 4.00136C4.00293 4.61646 4.00293 5.41215 4.00293 7.00353V16.9975C4.00293 18.5888 4.00293 19.3845 4.3956 19.9996C4.46572 20.1095 4.54433 20.2137 4.6307 20.3113C5.11437 20.8577 5.87959 21.0763 7.41003 21.5135C8.94433 21.9518 9.71149 22.1709 10.2669 21.8422C10.3633 21.7852 10.4529 21.7176 10.5342 21.6407C11.0029 21.197 11.0029 20.3993 11.0029 18.8039V5.19711C11.0029 3.60171 11.0029 2.804 10.5342 2.36031C10.4529 2.28337 10.3633 2.21576 10.2669 2.15876C9.71149 1.83005 8.94433 2.04919 7.41003 2.48748C5.87959 2.92467 5.11437 3.14327 4.6307 3.68974C4.54433 3.78733 4.46572 3.89152 4.3956 4.00136Z" stroke="#374151" stroke-width="1.8" stroke-linecap="round" stroke-linejoin="round"/>
<path d="M10.9971 3.99951H13.0142C14.9159 3.99951 15.8667 3.99951 16.4575 4.5853C16.7869 4.91189 16.9326 5.34945 16.9971 5.99951M10.9971 19.9995H13.0142C14.9159 19.9995 15.8667 19.9995 16.4575 19.4137C16.7869 19.0871 16.9326 18.6496 16.9971 17.9995" stroke="#374151" stroke-width="1.8" stroke-linecap="round" stroke-linejoin="round"/>
<path d="M20.9971 12.0005H13.9971M19.4971 9.50049C19.4971 9.50049 21.9971 11.3417 21.9971 12.0005C21.9971 12.6593 19.4971 14.5004 19.4971 14.5004" stroke="#374151" stroke-width="1.8" stroke-linecap="round" stroke-linejoin="round"/>
</svg>
