<svg width="20" height="20" viewBox="0 0 20 20" fill="none" xmlns="http://www.w3.org/2000/svg">
<path d="M17.6962 8.44812C16.6021 6.61562 14.1461 3.5415 10.0003 3.5415C5.85446 3.5415 3.39854 6.61562 2.30437 8.44812C1.73188 9.40479 1.73188 10.5941 2.30437 11.5516C3.39854 13.3841 5.85446 16.4582 10.0003 16.4582C14.1461 16.4582 16.6021 13.3841 17.6962 11.5516C18.2687 10.5941 18.2687 9.40562 17.6962 8.44812ZM16.6236 10.9099C15.6653 12.5149 13.5295 15.2082 10.0003 15.2082C6.47113 15.2082 4.3353 12.5157 3.37697 10.9099C3.04197 10.3482 3.04197 9.65066 3.37697 9.08899C4.3353 7.48399 6.47113 4.79069 10.0003 4.79069C13.5295 4.79069 15.6653 7.48316 16.6236 9.08899C16.9595 9.65149 16.9595 10.3482 16.6236 10.9099ZM10.0003 6.45817C8.04696 6.45817 6.45863 8.04734 6.45863 9.99984C6.45863 11.9523 8.04696 13.5415 10.0003 13.5415C11.9536 13.5415 13.542 11.9523 13.542 9.99984C13.542 8.04734 11.9536 6.45817 10.0003 6.45817ZM10.0003 12.2915C8.73613 12.2915 7.70863 11.264 7.70863 9.99984C7.70863 8.73567 8.73613 7.70817 10.0003 7.70817C11.2645 7.70817 12.292 8.73567 12.292 9.99984C12.292 11.264 11.2645 12.2915 10.0003 12.2915Z" fill="#4A3A2F"/>
</svg>
