<svg width="20" height="20" viewBox="0 0 20 20" fill="none" xmlns="http://www.w3.org/2000/svg">
<path d="M12.6087 2.08317C11.7878 1.8128 10.9107 1.6665 9.99935 1.6665C5.39697 1.6665 1.66602 5.39746 1.66602 9.99984C1.66602 14.6022 5.39697 18.3332 9.99935 18.3332C14.6017 18.3332 18.3327 14.6022 18.3327 9.99984C18.3327 9.12884 18.199 8.28904 17.9512 7.49984" stroke="#8C7055" stroke-width="1.25" stroke-linecap="round"/>
<path opacity="0.4" d="M14.1673 10.0002C14.1673 12.3013 12.3018 14.1668 10.0007 14.1668C7.69947 14.1668 5.83398 12.3013 5.83398 10.0002C5.83398 7.69898 7.69947 5.8335 10.0007 5.8335" stroke="#8C7055" stroke-width="1.25" stroke-linecap="round" stroke-linejoin="round"/>
<path opacity="0.4" d="M16.25 3.74984L10 9.99984M16.25 3.74984V1.6665M16.25 3.74984H18.3333" stroke="#8C7055" stroke-width="1.25" stroke-linecap="round" stroke-linejoin="round"/>
</svg>
