<svg width="20" height="20" viewBox="0 0 20 20" fill="none" xmlns="http://www.w3.org/2000/svg">
<path d="M18.1765 8.36824H17.5052V8.33366H10.0052V11.667H14.7148C14.0277 13.6074 12.1815 15.0003 10.0052 15.0003C7.24396 15.0003 5.00521 12.7616 5.00521 10.0003C5.00521 7.23908 7.24396 5.00033 10.0052 5.00033C11.2798 5.00033 12.4394 5.48116 13.3223 6.26658L15.6794 3.90949C14.191 2.52241 12.2002 1.66699 10.0052 1.66699C5.40312 1.66699 1.67188 5.39824 1.67188 10.0003C1.67188 14.6024 5.40312 18.3337 10.0052 18.3337C14.6073 18.3337 18.3385 14.6024 18.3385 10.0003C18.3385 9.44158 18.281 8.89616 18.1765 8.36824Z" fill="#FFC107"/>
<path d="M2.625 6.12158L5.36292 8.12949C6.10375 6.29533 7.89792 5.00033 9.9975 5.00033C11.2721 5.00033 12.4317 5.48116 13.3146 6.26658L15.6717 3.90949C14.1833 2.52241 12.1925 1.66699 9.9975 1.66699C6.79667 1.66699 4.02083 3.47408 2.625 6.12158Z" fill="#FF3D00"/>
<path d="M9.99687 18.3336C12.1494 18.3336 14.1052 17.5099 15.584 16.1703L13.0048 13.9878C12.1402 14.6457 11.0834 15.0015 9.99687 15.0003C7.82937 15.0003 5.98896 13.6182 5.29562 11.6895L2.57812 13.7832C3.95729 16.482 6.75813 18.3336 9.99687 18.3336Z" fill="#4CAF50"/>
<path d="M18.1712 8.36759H17.5V8.33301H10V11.6663H14.7096C14.3809 12.5898 13.7889 13.3968 13.0067 13.9876L13.0079 13.9868L15.5871 16.1693C15.4046 16.3351 18.3333 14.1663 18.3333 9.99967C18.3333 9.44092 18.2758 8.89551 18.1712 8.36759Z" fill="#1976D2"/>
</svg>
