<svg width="20" height="20" viewBox="0 0 20 20" fill="none" xmlns="http://www.w3.org/2000/svg">
<path opacity="0.4" d="M1.68066 11.6665C3.51364 11.6665 4.99956 13.1524 4.99956 14.9854" stroke="#8C7055" stroke-width="1.25" stroke-linecap="round" stroke-linejoin="round"/>
<path opacity="0.4" d="M4.99956 3.34766C4.99956 5.18063 3.51364 6.66656 1.68066 6.66656" stroke="#8C7055" stroke-width="1.25" stroke-linecap="round" stroke-linejoin="round"/>
<path opacity="0.4" d="M15 3.34766C15 5.16459 16.4742 6.64051 18.2853 6.66621" stroke="#8C7055" stroke-width="1.25" stroke-linecap="round" stroke-linejoin="round"/>
<path d="M18.3327 9.16683V8.3335C18.3327 5.97647 18.3327 4.79796 17.6004 4.06573C16.8682 3.3335 15.6897 3.3335 13.3327 3.3335H6.66602C4.30899 3.3335 3.13048 3.3335 2.39825 4.06573C1.66602 4.79796 1.66602 5.97647 1.66602 8.3335V10.0002C1.66602 12.3572 1.66602 13.5357 2.39825 14.2679C3.13048 15.0002 4.30899 15.0002 6.66602 15.0002H9.16602" stroke="#8C7055" stroke-width="1.25" stroke-linecap="round" stroke-linejoin="round"/>
<path d="M12.5 9.1665C12.5 10.5473 11.3807 11.6665 10 11.6665C8.61925 11.6665 7.5 10.5473 7.5 9.1665C7.5 7.7858 8.61925 6.6665 10 6.6665C11.3807 6.6665 12.5 7.7858 12.5 9.1665Z" stroke="#8C7055" stroke-width="1.25" stroke-linecap="round" stroke-linejoin="round"/>
<path d="M11.666 14.9998C11.666 14.9998 12.4993 14.9998 13.3327 16.6665C13.3327 16.6665 15.9798 12.4998 18.3327 11.6665" stroke="#8C7055" stroke-width="1.25" stroke-linecap="round" stroke-linejoin="round"/>
</svg>
