<svg width="15" height="19" viewBox="0 0 15 19" fill="none" xmlns="http://www.w3.org/2000/svg">
<path d="M5.5 10.5625H9.5C11.3772 10.5625 12.586 11.2423 13.3369 12.1611C14.1029 13.0986 14.4375 14.3423 14.4375 15.5195C14.4374 16.5622 14.1617 17.2678 13.7119 17.7148C13.2615 18.1625 12.5493 18.4375 11.4971 18.4375H3.50293C2.45072 18.4375 1.73855 18.1625 1.28809 17.7148C0.838267 17.2678 0.562586 16.5622 0.5625 15.5195C0.5625 14.3423 0.897052 13.0986 1.66309 12.1611C2.41398 11.2423 3.62275 10.5625 5.5 10.5625ZM7.50879 0.5625C9.40413 0.5625 10.9463 2.10466 10.9463 4C10.9463 5.89534 9.40413 7.4375 7.50879 7.4375C5.61356 7.43737 4.07129 5.89526 4.07129 4C4.07129 2.10474 5.61356 0.562633 7.50879 0.5625Z" stroke="#5C473B" stroke-width="1.125"/>
</svg>
